<svg xmlns="http://www.w3.org/2000/svg" height="100" viewBox="0 0 100 100" width="100"><path d="m19.33 24.17-3.42 1.71v48.24l3.42 1.71 13.84-24.58z" fill="#4e4e4e"></path><path d="m27.3 73.96-7.97 1.87v-51.66l7.97 1.82z" fill="white"></path><path d="m23.1 22.28 4.2-2.09 19.95 31.98-19.95 27.64-4.2-2.09z" fill="#4e4e4e"></path><path d="m37.24 77-9.94 2.81v-59.62l9.94 2.82z" fill="white"></path><path d="m31.98 17.84 5.26-2.63 29.43 40.46-29.43 29.12-5.26-2.63z" fill="#4e4e4e"></path><path d="m49.99 80.13-12.75 4.66v-69.58l12.75 4.67z" fill="white"></path><path d="m43.19 12.24 6.8-3.4 31.84 43.49-31.84 38.83-6.8-3.4z" fill="#4e4e4e"></path><path d="m84.09 74.11-34.1 17.05v-82.32l34.1 17.05z" fill="white"></path></svg>