<svg xmlns="http://www.w3.org/2000/svg" width="200.000000pt" height="200.000000pt" viewBox="0 0 204.000000 192.000000" preserveAspectRatio="xMidYMid meet"><g transform="translate(0.000000,192.000000) scale(0.100000,-0.100000)" fill="#000000" stroke="white" stroke-width="30"><path d="M1414 1881 c-66 -38 -137 -117 -153 -171 -10 -33 -16 -40 -29 -35 -9 4 -53 14 -97 22 -93 17 -234 12 -335 -13 -36 -9 -76 -18 -89 -20 -13 -3 -36 -11 -51 -19 -27 -14 -29 -13 -70 37 -50 59 -124 98 -188 98 -38 0 -48 -5 -90 -47 -80 -80 -104 -202 -72 -354 12 -56 12 -61 -8 -82 -11 -12 -36 -53 -55 -92 -100 -204 -119 -400 -55 -590 72 -214 171 -340 353 -449 155 -94 281 -126 494 -126 146 0 264 30 409 104 298 153 496 475 475 774 -4 56 -3 72 8 72 25 0 80 45 98 80 41 79 33 142 -25 183 -30 22 -112 25 -143 5 -11 -7 -22 -10 -24 -8 -2 3 -15 25 -29 50 -15 25 -50 71 -78 103 l-53 58 17 37 c28 63 46 144 46 212 -1 170 -119 249 -256 171z m161 -11 c17 -11 37 -31 44 -46 30 -66 22 -229 -17 -312 -14 -31 -16 -32 -33 -16 -10 9 -15 23 -12 32 4 14 3 14 -5 3 -9 -12 -15 -10 -40 11 -16 14 -66 42 -111 64 -44 21 -80 44 -81 50 0 5 23 35 50 66 59 66 105 87 150 68 51 -21 75 -121 48 -197 -6 -18 -8 -36 -4 -40 9 -10 27 18 21 34 -2 7 1 15 7 19 7 4 8 3 4 -4 -4 -7 -3 -12 2 -12 15 0 5 123 -12 155 -9 17 -14 39 -11 50 3 11 2 15 -1 8 -4 -8 -12 -8 -32 3 -35 18 -76 18 -113 -1 -20 -11 -35 -13 -47 -6 -17 9 -47 -10 -35 -23 4 -3 1 -6 -5 -6 -7 0 -12 -6 -12 -12 1 -7 9 -3 19 10 11 12 25 22 32 22 7 0 0 -13 -15 -29 -15 -16 -38 -49 -50 -74 -17 -36 -25 -44 -36 -36 -13 8 -12 12 4 24 11 8 15 15 10 15 -12 0 -12 29 0 49 7 11 10 11 18 0 7 -10 8 -8 4 6 -5 15 5 32 36 62 87 84 157 104 223 63z m-1123 -120 c45 -13 57 -27 23 -27 -14 0 -25 3 -25 8 0 5 -12 9 -27 9 -70 0 -147 -90 -159 -186 -4 -32 -10 -51 -16 -48 -15 10 0 82 29 143 27 54 90 111 122 111 9 0 33 -5 53 -10z m77 -39 c2 -1 -3 -9 -10 -18 -13 -16 -12 -17 3 -5 15 12 21 9 50 -24 18 -21 41 -46 50 -55 9 -10 24 -29 33 -43 10 -14 21 -23 27 -20 5 3 4 12 -3 20 -9 11 -9 14 1 14 7 0 19 -8 26 -17 13 -17 14 -17 8 0 -5 13 -1 20 15 24 11 3 21 10 21 16 0 5 10 2 22 -9 21 -19 21 -19 14 0 -5 15 -4 17 8 7 11 -9 15 -9 18 0 7 20 71 17 91 -5 9 -10 17 -15 17 -10 0 6 -5 15 -12 22 -9 9 -7 12 12 12 14 0 35 -13 52 -32 20 -23 27 -27 22 -13 -4 11 -14 26 -23 33 -26 21 4 31 81 29 37 -2 62 1 55 5 -34 21 -393 -15 -422 -43 -11 -11 -35 -12 -35 -1 0 16 100 42 252 66 131 21 319 -1 428 -50 83 -38 141 -68 151 -81 7 -7 17 -13 24 -13 20 0 146 -130 138 -143 -3 -6 -1 -7 6 -3 6 4 14 0 18 -10 3 -10 15 -26 25 -36 10 -10 23 -29 28 -41 6 -12 15 -30 22 -39 10 -14 9 -20 -4 -35 -21 -22 -40 -105 -31 -130 15 -41 44 -70 82 -82 l41 -12 0 -86 c0 -93 -33 -257 -56 -281 -8 -7 -12 -18 -9 -23 3 -4 -2 -23 -12 -41 -9 -18 -18 -38 -19 -45 -1 -6 -17 -31 -35 -55 -19 -24 -35 -45 -36 -47 -2 -2 -6 -2 -9 2 -3 3 4 15 16 27 12 12 19 25 15 28 -10 11 -46 -41 -41 -60 3 -15 1 -16 -16 -7 -13 7 -18 7 -14 1 4 -6 -1 -15 -11 -20 -15 -9 -15 -12 -3 -27 12 -15 11 -16 -12 -10 -23 6 -35 -4 -42 -35 -1 -3 -7 -15 -14 -28 -10 -18 -18 -21 -40 -15 -24 6 -25 4 -14 -9 17 -21 -3 -35 -23 -18 -18 15 -20 -1 -2 -19 10 -10 8 -11 -7 -5 -15 6 -17 4 -11 -6 5 -8 4 -11 -1 -7 -12 7 -75 -23 -69 -33 2 -4 -7 -5 -20 -2 -14 2 -40 -3 -57 -11 -18 -9 -46 -19 -62 -23 l-29 -7 24 -13 24 -13 -25 1 c-14 0 -34 -3 -44 -7 -16 -7 -18 -5 -13 8 10 25 -8 20 -26 -7 -16 -24 -19 -24 -151 -23 -74 0 -133 4 -130 9 6 10 6 10 -34 -1 -22 -7 -30 -6 -26 1 4 7 -9 9 -39 7 -25 -2 -43 -1 -40 4 2 4 -1 7 -8 7 -8 0 -8 4 1 15 15 18 11 19 -26 4 -32 -11 -78 -4 -69 12 4 6 -3 7 -21 3 -19 -5 -25 -4 -20 5 4 6 2 12 -3 12 -26 3 -30 4 -37 12 -4 4 -2 7 4 7 7 0 12 4 12 9 0 5 -15 9 -34 8 -19 0 -41 6 -50 16 -10 9 -14 17 -9 17 11 0 -20 20 -32 20 -5 0 -3 -5 5 -11 13 -9 13 -10 0 -6 -8 2 -14 10 -12 17 1 6 -6 14 -17 17 -12 3 -17 11 -14 19 4 10 0 12 -10 8 -23 -8 -89 59 -81 83 4 14 4 15 -4 4 -12 -16 -27 3 -16 21 4 7 3 8 -4 4 -12 -7 -67 72 -78 111 -3 13 -11 23 -16 23 -6 0 -8 7 -4 15 3 8 2 15 -3 15 -4 0 -18 37 -31 83 -17 61 -22 109 -22 187 0 113 23 243 47 270 8 9 12 20 8 23 -3 4 -1 7 5 7 7 0 12 9 12 19 0 18 18 54 58 120 l14 24 18 -39 c20 -43 27 -32 9 13 -6 15 -13 52 -14 82 -1 29 -6 56 -11 60 -14 9 -18 85 -5 77 7 -5 11 5 11 26 0 23 3 29 9 19 6 -9 11 3 16 39 4 31 10 47 15 40 5 -8 10 -9 14 -2 3 6 2 13 -4 17 -16 10 -12 25 5 19 10 -4 15 0 15 15 0 15 4 19 18 14 15 -6 16 -5 2 12 -11 14 -11 17 -1 11 8 -5 17 -3 22 5 7 11 9 11 9 1 0 -11 3 -11 14 0 10 11 97 17 125 9z m1371 -466 c32 -17 60 -61 60 -96 0 -12 -12 -43 -26 -70 -35 -62 -80 -84 -133 -62 -70 28 -94 88 -63 150 43 82 100 110 162 78z"></path><path d="M1421 1844 c-28 -15 -50 -29 -47 -32 7 -6 78 16 116 35 21 11 27 11 36 -2 6 -8 14 -12 17 -8 4 3 7 0 7 -7 0 -7 3 -10 7 -7 3 4 17 0 30 -9 24 -15 24 -15 13 5 -14 27 -61 51 -98 51 -15 0 -52 -12 -81 -26z"></path><path d="M400 1627 c-41 -27 -68 -71 -74 -120 -3 -20 -10 -45 -16 -56 -16 -30 -11 -39 6 -11 15 25 15 25 10 -14 -4 -28 2 -58 21 -105 14 -36 29 -70 34 -76 16 -17 9 21 -13 71 -15 36 -21 70 -22 129 -1 96 14 136 59 160 28 16 37 17 64 5 37 -15 141 -126 141 -150 0 -26 -12 -31 -26 -12 -13 15 -14 15 -11 -8 3 -36 19 -42 34 -13 19 36 16 55 -12 97 -14 20 -25 42 -25 48 0 6 -3 8 -6 5 -4 -3 -16 5 -27 20 -18 23 -72 53 -95 53 -5 0 -24 -10 -42 -23z"></path><path d="M960 1472 c14 -28 50 -66 56 -59 3 3 -11 22 -31 43 -24 26 -33 31 -25 16z"></path><path d="M536 1403 c4 -23 2 -32 -11 -37 -9 -3 -21 -4 -26 0 -5 3 -9 -3 -9 -13 0 -11 -6 -25 -12 -32 -11 -11 -10 -13 5 -7 10 3 23 6 28 6 5 0 9 9 9 20 0 14 5 18 18 13 9 -3 14 -3 10 2 -4 4 0 13 9 20 15 11 15 14 -5 36 l-22 23 6 -31z"></path><path d="M1353 1406 c-6 -12 -17 -13 -45 -7 -20 5 -40 6 -43 3 -3 -4 -23 -8 -45 -9 -46 -3 -150 -41 -150 -54 0 -6 -4 -7 -10 -4 -5 3 -10 2 -10 -3 0 -6 -16 -19 -34 -30 -19 -12 -48 -38 -63 -60 -17 -22 -35 -37 -43 -35 -11 4 -12 2 -2 -4 10 -8 7 -22 -13 -69 -15 -32 -30 -67 -35 -76 -6 -11 -6 -19 1 -23 6 -4 6 -12 1 -18 -10 -15 -8 -79 7 -146 13 -60 68 -181 83 -181 5 0 6 -5 2 -12 -5 -7 -3 -8 5 -4 8 5 12 3 10 -5 -3 -25 1 -39 11 -39 5 0 6 8 3 18 -6 15 -5 15 10 3 9 -7 14 -17 11 -22 -3 -5 0 -9 6 -9 6 0 28 -11 48 -25 20 -14 46 -25 57 -25 15 0 17 -2 6 -9 -8 -5 -9 -11 -3 -15 6 -3 12 -1 14 5 5 14 46 -5 64 -29 6 -8 19 -12 30 -9 17 4 16 5 -3 6 -13 0 -23 5 -23 10 0 5 30 9 68 9 71 0 97 4 108 15 4 4 14 7 22 7 20 0 122 52 122 62 0 4 5 8 11 8 16 0 69 61 107 122 36 60 59 138 56 187 -1 17 1 33 6 36 9 5 1 55 -11 71 -5 6 -8 22 -7 35 2 35 -28 99 -47 99 -14 0 -14 -3 0 -31 55 -106 48 -279 -16 -387 -29 -49 -95 -118 -140 -147 -64 -41 -173 -69 -242 -61 -74 7 -169 50 -225 100 -51 46 -110 145 -122 205 -13 63 -18 161 -8 161 4 0 8 12 8 28 2 80 75 194 163 251 189 125 395 101 522 -60 17 -21 38 -38 48 -39 25 0 -53 92 -100 120 -21 12 -31 25 -27 32 4 7 3 8 -5 4 -6 -4 -22 -1 -34 7 -12 8 -39 17 -60 21 -28 5 -37 11 -33 22 7 18 -1 18 -11 0z"></path><path d="M1576 1395 c-18 -18 -18 -21 -10 -53 9 -33 49 -26 50 9 1 14 5 32 9 40 5 8 5 11 0 7 -4 -4 -14 -3 -21 2 -8 8 -17 6 -28 -5z"></path><path d="M427 1353 c17 -12 29 -73 15 -73 -6 0 -16 8 -22 18 -10 14 -11 13 -6 -8 3 -14 6 -32 6 -40 0 -10 6 -7 19 9 10 13 23 21 30 17 15 -10 13 3 -7 43 -9 19 -24 36 -32 39 -11 2 -12 1 -3 -5z"></path><path d="M1212 1344 c-108 -23 -195 -81 -248 -166 -30 -48 -33 -85 -4 -48 11 14 20 33 20 42 0 9 5 20 10 23 6 3 10 -2 10 -11 0 -25 8 -13 14 20 3 16 6 29 8 30 2 1 15 9 29 18 15 9 35 15 45 14 11 -2 13 -1 7 1 -26 9 -12 20 20 17 17 -1 26 0 20 3 -21 8 -15 26 7 20 13 -3 18 -1 13 5 -4 8 5 9 28 5 20 -4 29 -3 21 2 -17 10 81 21 146 15 29 -2 41 -1 32 5 -28 16 -115 18 -178 5z"></path><path d="M248 1227 c-29 -46 -39 -79 -28 -92 5 -6 6 -16 2 -20 -4 -5 -1 -5 6 0 10 5 11 10 3 18 -14 14 -14 30 0 22 6 -4 9 -1 8 6 -3 20 22 69 32 63 5 -3 9 -1 9 5 0 21 -18 20 -32 -2z"></path><path d="M1208 1224 c-49 -15 -91 -56 -86 -83 4 -21 46 -41 86 -41 18 0 32 -5 33 -12 5 -76 20 -142 35 -153 15 -10 14 -15 -5 -53 -11 -23 -21 -48 -21 -57 0 -8 -4 -15 -10 -15 -14 0 -13 2 14 64 24 55 24 55 4 62 -11 3 -46 8 -77 10 -31 2 -69 5 -86 7 -37 3 -75 -37 -75 -78 0 -36 52 -85 91 -85 29 0 29 -1 29 -59 0 -105 25 -140 89 -126 20 4 32 14 37 33 8 26 9 36 12 96 2 23 5 27 14 18 7 -7 19 -12 28 -11 10 0 9 3 -5 9 -18 8 -16 9 10 11 17 1 38 3 47 3 9 0 15 3 13 7 -8 11 24 32 40 25 8 -3 14 -2 12 2 -1 4 2 8 7 9 5 1 12 7 17 14 6 10 11 10 24 -1 12 -10 18 -11 28 -1 9 10 8 11 -5 6 -11 -5 -20 -2 -23 7 -4 11 -23 5 -83 -24 -76 -37 -125 -47 -137 -29 -3 6 11 13 32 16 53 9 132 45 170 78 39 34 62 95 42 108 -29 18 -40 4 -16 -20 10 -11 9 -13 -5 -8 -12 4 -18 1 -18 -8 0 -7 6 -15 13 -17 10 -2 9 -8 -6 -23 -17 -17 -19 -17 -14 -3 7 19 -8 34 -18 18 -4 -6 -10 -8 -14 -5 -5 2 -13 -14 -20 -36 -7 -22 -16 -37 -21 -34 -9 6 -3 31 12 52 5 7 5 14 -2 18 -16 10 -12 28 6 21 8 -3 12 -2 9 3 -3 5 -1 12 5 16 6 4 8 10 5 15 -2 4 8 13 24 20 17 7 28 17 25 25 -4 9 3 11 23 8 22 -4 25 -2 13 6 -8 6 -23 11 -33 11 -18 0 -167 -77 -177 -91 -10 -14 -33 9 -27 25 4 9 2 16 -3 16 -5 0 -7 7 -4 15 4 8 1 22 -5 29 -9 11 -9 15 1 19 8 4 9 8 3 14 -21 17 -12 42 18 53 74 25 91 81 32 106 -41 17 -47 17 -107 -2z m103 -14 c26 -14 24 -32 -6 -60 -33 -31 -133 -41 -155 -16 -11 15 -11 20 6 36 20 20 86 48 117 49 10 1 27 -4 38 -9z m114 -212 c-22 -12 -34 -23 -27 -25 6 -3 12 -9 12 -14 0 -6 -4 -8 -9 -5 -10 7 -24 -22 -16 -34 3 -4 -2 -13 -10 -20 -8 -7 -15 -23 -15 -36 0 -12 -4 -26 -10 -29 -22 -13 -5 49 31 118 11 20 8 21 -26 5 -27 -12 -32 -24 -14 -30 14 -5 -17 -108 -32 -108 -12 0 -12 3 7 50 9 23 14 43 11 46 -3 3 -14 -17 -24 -45 -10 -28 -23 -51 -29 -51 -13 0 -7 37 7 46 5 3 9 14 9 25 0 10 4 19 9 19 5 0 11 7 13 16 3 18 113 92 138 93 8 0 -3 -9 -25 -21z m-306 -61 c10 3 22 -1 27 -8 5 -9 2 -11 -9 -6 -10 3 -17 2 -17 -3 0 -5 -12 -7 -27 -4 -22 4 -24 3 -15 -9 10 -11 9 -17 -3 -27 -8 -7 -15 -17 -15 -23 0 -5 9 0 20 13 11 13 20 26 20 29 0 4 9 7 20 7 25 0 25 2 -5 -46 -38 -60 -30 -62 10 -3 19 29 35 57 35 63 0 11 69 14 87 2 8 -5 6 -18 -8 -47 -22 -44 -39 -65 -39 -48 0 7 9 28 21 47 21 36 21 36 1 36 -11 0 -26 2 -34 3 -7 2 -10 2 -5 0 4 -3 7 -9 7 -14 0 -6 -4 -8 -9 -4 -5 3 -20 -9 -32 -27 -15 -22 -17 -28 -6 -19 18 14 22 5 8 -18 -5 -7 -13 -11 -19 -7 -6 3 -13 2 -17 -4 -3 -5 2 -10 12 -11 11 0 13 -3 5 -6 -7 -3 -24 -2 -38 1 -25 7 -26 7 -8 34 l17 27 -22 -20 c-19 -16 -24 -17 -31 -5 -13 20 -12 26 5 40 18 15 20 34 3 24 -7 -4 -2 5 12 18 14 14 26 22 28 18 2 -5 11 -6 21 -3z m101 -42 c0 -3 -10 -20 -22 -38 -13 -18 -24 -34 -25 -36 -2 -2 -5 -2 -8 1 -8 7 34 78 46 78 5 0 9 -2 9 -5z m18 -94 c19 -12 27 -114 12 -150 -20 -50 -59 -51 -80 -1 -13 31 -17 131 -6 149 8 13 55 14 74 2z"></path><path d="M1193 756 c4 -10 7 -29 7 -44 0 -19 3 -23 11 -15 14 14 7 65 -10 71 -10 3 -12 0 -8 -12z"></path><path d="M662 1171 c-20 -12 -25 -66 -8 -80 20 -17 50 -10 54 12 9 45 -19 85 -46 68z"></path><path d="M570 962 c-14 -2 -30 -8 -37 -14 -7 -5 -17 -7 -22 -3 -7 3 -8 0 -5 -10 5 -11 2 -14 -12 -9 -11 4 -16 3 -11 -1 4 -5 -3 -19 -15 -32 -12 -12 -19 -26 -16 -29 3 -3 0 -17 -7 -31 -16 -31 -3 -87 28 -122 77 -85 230 -52 267 58 15 45 6 109 -15 118 -8 3 -13 9 -10 14 3 4 -6 16 -20 25 -13 9 -23 19 -21 23 3 4 -5 8 -17 8 -12 1 -31 4 -42 6 -11 2 -31 2 -45 -1z m120 -55 c10 -12 24 -39 31 -59 39 -119 -126 -224 -218 -138 -41 39 -47 61 -33 121 14 55 54 101 97 109 42 9 103 -8 123 -33z"></path><path d="M532 904 c-30 -21 -45 -51 -34 -70 8 -15 10 -15 15 0 4 10 3 15 -3 11 -6 -3 -10 -1 -10 5 0 6 7 13 15 16 8 4 15 12 15 20 0 8 7 14 15 14 8 0 15 5 15 10 0 13 -2 13 -28 -6z"></path><path d="M582 908 c-18 -23 -44 -80 -38 -85 3 -3 15 15 27 41 15 31 26 42 31 33 5 -8 8 -7 8 6 0 20 -13 22 -28 5z"></path><path d="M631 848 c-1 -9 -6 -20 -13 -24 -8 -5 -9 -2 -5 10 4 11 3 15 -4 10 -13 -8 -42 -74 -36 -81 3 -2 10 10 16 27 6 17 15 29 20 26 12 -8 34 20 28 36 -4 8 -6 7 -6 -4z"></path><path d="M641 791 c-17 -32 -31 -65 -31 -72 0 -8 16 17 35 55 43 85 40 99 -4 17z"></path><path d="M590 756 c-23 -56 -24 -56 -8 -56 6 0 9 3 5 6 -3 4 3 24 14 46 11 22 18 42 15 45 -3 3 -15 -15 -26 -41z"></path><path d="M1396 358 c-8 -33 -7 -48 3 -48 6 0 8 9 6 20 -2 11 0 22 6 25 11 8 12 25 0 25 -5 0 -11 -10 -15 -22z"></path><path d="M905 90 c7 -11 65 -11 110 0 23 6 12 8 -43 9 -47 1 -71 -3 -67 -9z"></path><path d="M1821 1231 c-9 -6 -10 -10 -2 -16 7 -4 18 -1 26 5 14 11 19 7 16 -12 -2 -13 9 -9 27 9 16 16 16 16 0 10 -10 -3 -18 -2 -18 3 0 12 -30 13 -49 1z"></path></g></svg>